# Blender v2.77 (sub 0) OBJ File: 'ForestTutorial.blend'
# www.blender.org
mtllib IceRock3.mtl
o IceRock3_Icosphere.004
v -1.139798 -0.017998 0.891989
v -0.819210 -0.017993 0.958930
v -1.169761 -0.017208 1.169635
v -1.474671 -0.020578 0.995965
v -1.319885 -0.018172 0.679411
v -0.912543 -0.017846 0.655801
v -1.066777 0.311047 1.065656
v -1.406557 0.287459 1.130936
v -1.432840 0.194878 0.835162
v -1.016682 0.265190 0.628224
v -0.827364 0.257713 0.855086
v -1.212566 0.424983 0.877200
v -0.951253 -0.017998 0.931350
v -0.968309 -0.017979 1.094362
v -1.156796 -0.017998 1.055130
v -1.006272 -0.017998 0.753175
v -0.818818 -0.018063 0.792877
v -1.354932 -0.018642 1.116128
v -1.338851 -0.017998 0.953456
v -1.443904 -0.018585 0.829401
v -1.245819 -0.017998 0.766836
v -1.112293 -0.017998 0.628020
v -0.820813 0.123331 0.723846
v -0.808493 0.105156 0.899288
v -0.855052 0.113964 1.031964
v -1.149457 0.174416 1.166899
v -1.344550 0.157799 1.209459
v -1.435411 0.085004 1.072480
v -1.471366 0.072309 0.921325
v -1.414833 0.095429 0.751585
v -1.228472 0.110158 0.603789
v -0.917183 0.130576 0.596889
v -0.890357 0.267556 0.971359
v -1.329967 0.392618 1.172472
v -1.435594 0.226160 0.974654
v -1.353925 0.265959 0.695685
v -0.837319 0.306449 0.711395
v -0.910945 0.381669 0.870146
v -1.129651 0.418585 0.994028
v -1.383138 0.429001 1.030909
v -1.406543 0.358595 0.839464
v -1.093616 0.384890 0.729934
v -1.140136 0.016370 0.892095
v -0.827941 0.016375 0.957283
v -1.169314 0.017140 1.162471
v -1.466241 0.013858 0.993348
v -1.315507 0.016202 0.685082
v -0.918830 0.016519 0.662090
v -1.069026 0.336801 1.061214
v -1.399910 0.313831 1.124786
v -1.425505 0.223673 0.836755
v -1.020243 0.292144 0.635235
v -0.835881 0.284863 0.856157
v -1.210998 0.447754 0.877693
v -0.956526 0.016370 0.930424
v -0.973136 0.016390 1.089169
v -1.156688 0.016370 1.050964
v -1.010105 0.016370 0.756915
v -0.827559 0.016308 0.795577
v -1.349637 0.015744 1.110366
v -1.333977 0.016370 0.951952
v -1.436279 0.015800 0.831145
v -1.243381 0.016370 0.770218
v -1.113350 0.016370 0.635036
v -0.829502 0.154000 0.728353
v -0.817504 0.136301 0.899202
v -0.862844 0.144878 1.028404
v -1.149542 0.203748 1.159807
v -1.339527 0.187566 1.201253
v -1.428009 0.116676 1.067860
v -1.463023 0.104313 0.920662
v -1.407969 0.126829 0.755367
v -1.226487 0.141172 0.611439
v -0.923349 0.161055 0.604720
v -0.897225 0.294449 0.969386
v -1.325326 0.416237 1.165234
v -1.428187 0.254136 0.972594
v -1.348657 0.292893 0.700930
v -0.845575 0.332324 0.716228
v -0.917274 0.405574 0.870823
v -1.130254 0.441523 0.991462
v -1.377104 0.451667 1.027377
v -1.399897 0.383104 0.840944
v -1.095163 0.408711 0.734282
vn 0.0000 -1.0000 0.0000
vn -0.0000 -1.0000 0.0004
vn 0.9963 -0.0856 0.0024
vn 0.3498 -0.0237 0.9365
vn -0.6852 -0.2429 0.6867
vn -0.7493 -0.2322 -0.6202
vn 0.1287 -0.3624 -0.9231
vn 0.9424 0.0757 0.3257
vn 0.2138 -0.0087 0.9768
vn -0.9563 0.2031 0.2104
vn -0.6203 -0.0202 -0.7841
vn 0.7723 -0.2134 -0.5984
vn 0.4734 0.6630 0.5799
vn -0.8063 0.4245 0.4119
vn -0.9856 0.1598 -0.0553
vn -0.1588 0.5780 -0.8004
vn 0.8295 0.5439 0.1270
vn -0.0013 -1.0000 0.0068
vn 0.0001 -1.0000 0.0001
vn 0.0000 -1.0000 0.0001
vn -0.0000 -1.0000 -0.0016
vn -0.0004 -1.0000 0.0001
vn 0.0183 -0.9998 -0.0021
vn 0.0021 -1.0000 -0.0037
vn 0.0056 -1.0000 0.0075
vn 0.0028 -1.0000 -0.0004
vn 0.0035 -1.0000 0.0018
vn 0.0162 -0.9998 -0.0090
vn 0.0009 -1.0000 -0.0007
vn 0.0011 -1.0000 0.0011
vn 0.9927 0.1058 -0.0588
vn 0.9972 -0.0212 -0.0722
vn 0.7979 -0.2553 -0.5460
vn 0.4486 0.3407 0.8262
vn 0.4262 0.0610 0.9026
vn 0.6557 -0.2214 0.7219
vn -0.8206 -0.0475 0.5695
vn -0.7183 -0.2918 0.6316
vn -0.2459 -0.4419 0.8627
vn -0.9488 0.0841 -0.3045
vn -0.9495 0.0290 -0.3123
vn -0.9770 -0.1113 -0.1818
vn -0.0349 0.2020 -0.9788
vn -0.0090 -0.1937 -0.9810
vn -0.2227 -0.3723 -0.9010
vn 0.5063 0.4147 0.7561
vn 0.8995 0.3229 0.2942
vn 0.8626 0.2363 0.4473
vn -0.6302 0.1588 0.7600
vn 0.1996 0.1404 0.9698
vn 0.4428 0.3452 0.8275
vn -0.9652 0.2505 -0.0752
vn -0.9647 0.1491 0.2170
vn -0.9846 0.0987 0.1442
vn -0.1799 0.3882 -0.9038
vn -0.6192 -0.0360 -0.7844
vn -0.8927 0.1840 -0.4113
vn 0.9954 0.0870 -0.0394
vn 0.7970 0.0308 -0.6032
vn 0.3001 0.4210 -0.8560
vn 0.1409 0.9890 -0.0459
vn 0.4593 0.6344 0.6218
vn 0.7862 0.4833 0.3850
vn 0.0444 0.9987 0.0232
vn 0.0723 0.9722 0.2227
vn 0.4488 0.6621 0.6001
vn -0.2544 0.9173 -0.3063
vn -0.9697 0.2426 0.0293
vn -0.9699 0.2254 0.0918
vn -0.2203 0.8814 -0.4179
vn -0.2703 0.7613 -0.5894
vn -0.8916 0.1544 -0.4258
vn 0.1368 0.9783 -0.1558
vn 0.2570 0.9140 -0.3139
vn 0.1630 0.6976 -0.6977
vn -0.8206 -0.0475 0.5696
vn 0.5064 0.4147 0.7561
usemtl Rock
s off
f 1//1 13//1 15//1
f 2//2 13//2 17//2
f 1//1 15//1 19//1
f 1//1 19//1 21//1
f 1//1 21//1 16//1
f 2//3 17//3 24//3
f 3//4 14//4 26//4
f 4//5 18//5 28//5
f 5//6 20//6 30//6
f 6//7 22//7 32//7
f 2//8 24//8 25//8
f 3//9 26//9 27//9
f 4//10 28//10 29//10
f 5//11 30//11 31//11
f 6//12 32//12 23//12
f 7//13 33//13 39//13
f 8//14 34//14 40//14
f 9//15 35//15 41//15
f 10//16 36//16 42//16
f 11//17 37//17 38//17
f 15//18 14//18 3//18
f 15//19 13//19 14//19
f 13//20 2//20 14//20
f 17//21 16//21 6//21
f 17//22 13//22 16//22
f 13//1 1//1 16//1
f 19//23 18//23 4//23
f 19//24 15//24 18//24
f 15//25 3//25 18//25
f 21//26 20//26 5//26
f 21//27 19//27 20//27
f 19//28 4//28 20//28
f 16//29 22//29 6//29
f 16//1 21//1 22//1
f 21//30 5//30 22//30
f 24//31 23//31 11//31
f 24//32 17//32 23//32
f 17//33 6//33 23//33
f 26//34 25//34 7//34
f 26//35 14//35 25//35
f 14//36 2//36 25//36
f 28//37 27//37 8//37
f 28//38 18//38 27//38
f 18//39 3//39 27//39
f 30//40 29//40 9//40
f 30//41 20//41 29//41
f 20//42 4//42 29//42
f 32//43 31//43 10//43
f 32//44 22//44 31//44
f 22//45 5//45 31//45
f 25//46 33//46 7//46
f 25//47 24//47 33//47
f 24//48 11//48 33//48
f 27//49 34//49 8//49
f 27//50 26//50 34//50
f 26//51 7//51 34//51
f 29//52 35//52 9//52
f 29//53 28//53 35//53
f 28//54 8//54 35//54
f 31//55 36//55 10//55
f 31//56 30//56 36//56
f 30//57 9//57 36//57
f 23//58 37//58 11//58
f 23//59 32//59 37//59
f 32//60 10//60 37//60
f 39//61 38//61 12//61
f 39//62 33//62 38//62
f 33//63 11//63 38//63
f 40//64 39//64 12//64
f 40//65 34//65 39//65
f 34//66 7//66 39//66
f 41//67 40//67 12//67
f 41//68 35//68 40//68
f 35//69 8//69 40//69
f 42//70 41//70 12//70
f 42//71 36//71 41//71
f 36//72 9//72 41//72
f 38//73 42//73 12//73
f 38//74 37//74 42//74
f 37//75 10//75 42//75
usemtl Snow
f 43//1 55//1 57//1
f 44//2 55//2 59//2
f 43//1 57//1 61//1
f 43//1 61//1 63//1
f 43//1 63//1 58//1
f 44//3 59//3 66//3
f 45//4 56//4 68//4
f 46//5 60//5 70//5
f 47//6 62//6 72//6
f 48//7 64//7 74//7
f 44//8 66//8 67//8
f 45//9 68//9 69//9
f 46//10 70//10 71//10
f 47//11 72//11 73//11
f 48//12 74//12 65//12
f 49//13 75//13 81//13
f 50//14 76//14 82//14
f 51//15 77//15 83//15
f 52//16 78//16 84//16
f 53//17 79//17 80//17
f 57//18 56//18 45//18
f 57//19 55//19 56//19
f 55//20 44//20 56//20
f 59//21 58//21 48//21
f 59//22 55//22 58//22
f 55//1 43//1 58//1
f 61//23 60//23 46//23
f 61//24 57//24 60//24
f 57//25 45//25 60//25
f 63//26 62//26 47//26
f 63//27 61//27 62//27
f 61//28 46//28 62//28
f 58//29 64//29 48//29
f 58//1 63//1 64//1
f 63//30 47//30 64//30
f 66//31 65//31 53//31
f 66//32 59//32 65//32
f 59//33 48//33 65//33
f 68//34 67//34 49//34
f 68//35 56//35 67//35
f 56//36 44//36 67//36
f 70//76 69//76 50//76
f 70//38 60//38 69//38
f 60//39 45//39 69//39
f 72//40 71//40 51//40
f 72//41 62//41 71//41
f 62//42 46//42 71//42
f 74//43 73//43 52//43
f 74//44 64//44 73//44
f 64//45 47//45 73//45
f 67//77 75//77 49//77
f 67//47 66//47 75//47
f 66//48 53//48 75//48
f 69//49 76//49 50//49
f 69//50 68//50 76//50
f 68//51 49//51 76//51
f 71//52 77//52 51//52
f 71//53 70//53 77//53
f 70//54 50//54 77//54
f 73//55 78//55 52//55
f 73//56 72//56 78//56
f 72//57 51//57 78//57
f 65//58 79//58 53//58
f 65//59 74//59 79//59
f 74//60 52//60 79//60
f 81//61 80//61 54//61
f 81//62 75//62 80//62
f 75//63 53//63 80//63
f 82//64 81//64 54//64
f 82//65 76//65 81//65
f 76//66 49//66 81//66
f 83//67 82//67 54//67
f 83//68 77//68 82//68
f 77//69 50//69 82//69
f 84//70 83//70 54//70
f 84//71 78//71 83//71
f 78//72 51//72 83//72
f 80//73 84//73 54//73
f 80//74 79//74 84//74
f 79//75 52//75 84//75
