# Blender v2.77 (sub 0) OBJ File: 'ForestTutorial.blend'
# www.blender.org
mtllib IceRock2.mtl
o Icosphere.003
v -0.243223 -0.017998 0.891989
v 0.070085 -0.017993 0.987362
v -0.297921 -0.017208 1.165838
v -0.586059 -0.020578 0.965568
v -0.403460 -0.018205 0.664261
v 0.005466 -0.018540 0.678528
v -0.186042 0.198574 1.071496
v -0.533112 0.122862 1.106694
v -0.517256 0.151572 0.824996
v -0.055643 0.128828 0.689616
v 0.071261 0.145239 0.883205
v -0.314792 0.307527 0.870834
v -0.058958 -0.017998 0.948071
v -0.090539 -0.017979 1.108902
v -0.274757 -0.017998 1.052954
v -0.097805 -0.017998 0.765687
v 0.085341 -0.018063 0.822011
v -0.477559 -0.018642 1.095968
v -0.446979 -0.017998 0.935389
v -0.538953 -0.019129 0.804355
v -0.337614 -0.017998 0.757847
v -0.192196 -0.017998 0.631542
v 0.089534 0.094942 0.753078
v 0.086099 0.062813 0.928919
v 0.027849 0.076877 1.056894
v -0.277727 0.140527 1.164989
v -0.476530 0.089405 1.190058
v -0.553908 0.067535 1.045312
v -0.576086 0.072309 0.891524
v -0.483970 0.062594 0.753147
v -0.289929 0.092220 0.616445
v 0.029548 0.080101 0.647380
v -0.001889 0.155083 0.993372
v -0.462061 0.193777 1.155241
v -0.547830 0.158889 0.948394
v -0.404907 0.141541 0.719572
v 0.081319 0.189869 0.747678
v -0.013333 0.269195 0.890722
v -0.242323 0.305250 0.994542
v -0.504743 0.221691 1.009998
v -0.494804 0.231396 0.828820
v -0.170367 0.265280 0.749451
v -0.243451 0.010726 0.892190
v 0.062192 0.010731 0.985230
v -0.296811 0.011497 1.159339
v -0.577900 0.008209 0.963969
v -0.399767 0.010524 0.670033
v -0.000846 0.010197 0.683951
v -0.187669 0.222000 1.067305
v -0.526248 0.148141 1.101642
v -0.510779 0.176149 0.826836
v -0.060460 0.153960 0.694768
v 0.063339 0.169970 0.883621
v -0.313269 0.328288 0.871553
v -0.063694 0.010726 0.946900
v -0.094503 0.010746 1.103796
v -0.274214 0.010726 1.049217
v -0.101591 0.010726 0.768978
v 0.077075 0.010663 0.823924
v -0.472054 0.010098 1.091179
v -0.442222 0.010726 0.934528
v -0.531946 0.009623 0.806700
v -0.335532 0.010726 0.761330
v -0.193672 0.010726 0.638115
v 0.081166 0.120903 0.756678
v 0.077814 0.089560 0.928217
v 0.020989 0.103280 1.053060
v -0.277111 0.165374 1.158511
v -0.471050 0.115502 1.182966
v -0.546535 0.094167 1.041762
v -0.568170 0.098824 0.891736
v -0.478308 0.089347 0.756745
v -0.289014 0.118249 0.623387
v 0.022647 0.106426 0.653566
v -0.008021 0.179573 0.991092
v -0.456935 0.217320 1.149002
v -0.540606 0.183286 0.947215
v -0.401180 0.166363 0.723992
v 0.073151 0.213508 0.751409
v -0.019186 0.290894 0.890954
v -0.242573 0.326066 0.992234
v -0.498573 0.244552 1.007312
v -0.488878 0.254020 0.830566
v -0.172377 0.287074 0.753139
vn 0.0000 -1.0000 0.0000
vn -0.0001 -1.0000 0.0004
vn 0.9873 -0.1297 0.0912
vn 0.2645 -0.0287 0.9639
vn -0.7339 -0.2887 0.6149
vn -0.7181 0.0482 -0.6942
vn 0.2165 -0.3416 -0.9146
vn 0.9091 0.1103 0.4017
vn 0.1279 -0.0110 0.9917
vn -0.9645 0.2199 0.1459
vn -0.5820 0.2656 -0.7686
vn 0.8377 -0.3396 -0.4277
vn 0.4191 0.6662 0.6170
vn -0.7702 0.5451 0.3311
vn -0.9298 0.2733 -0.2466
vn -0.0672 0.3528 -0.9333
vn 0.8091 0.5378 0.2371
vn -0.0019 -1.0000 0.0066
vn 0.0001 -1.0000 0.0001
vn 0.0000 -1.0000 0.0001
vn -0.0017 -1.0000 0.0043
vn -0.0004 -1.0000 0.0001
vn 0.0184 -0.9998 -0.0005
vn 0.0024 -1.0000 -0.0035
vn 0.0049 -1.0000 0.0080
vn 0.0053 -1.0000 -0.0015
vn 0.0065 -1.0000 0.0040
vn 0.0177 -0.9998 -0.0038
vn -0.0033 -1.0000 0.0023
vn 0.0012 -1.0000 0.0014
vn 0.9766 0.2074 0.0570
vn 0.9995 -0.0283 0.0144
vn 0.8305 -0.3122 -0.4613
vn 0.3767 0.5749 0.7263
vn 0.3471 0.0792 0.9345
vn 0.5754 -0.3012 0.7604
vn -0.8459 -0.2207 0.4855
vn -0.7779 -0.4085 0.4776
vn -0.2773 -0.6295 0.7259
vn -0.8194 0.1420 -0.5554
vn -0.8094 0.1982 -0.5527
vn -0.9526 -0.1205 -0.2794
vn 0.0926 0.7397 -0.6666
vn 0.0943 -0.0526 -0.9942
vn -0.1475 -0.2614 -0.9539
vn 0.4196 0.6631 0.6199
vn 0.7861 0.5413 0.2983
vn 0.7776 0.4062 0.4800
vn -0.7261 0.3060 0.6157
vn 0.0397 0.3112 0.9495
vn 0.1815 0.7457 0.6410
vn -0.8651 0.4403 -0.2404
vn -0.9648 0.2190 0.1459
vn -0.9678 0.2107 0.1379
vn -0.0046 0.9001 -0.4356
vn -0.5826 0.2553 -0.7716
vn -0.6296 0.3317 -0.7025
vn 0.9904 0.0916 0.1037
vn 0.8659 0.0466 -0.4980
vn 0.0157 0.6704 -0.7418
vn 0.1297 0.9899 -0.0577
vn 0.3997 0.6349 0.6612
vn 0.7486 0.4833 0.4539
vn -0.2881 0.9393 0.1861
vn -0.2791 0.9245 0.2597
vn 0.2121 0.6429 0.7360
vn -0.3948 0.9183 0.0275
vn -0.8180 0.5750 -0.0141
vn -0.8846 0.4302 0.1801
vn -0.2172 0.8123 -0.5412
vn -0.2450 0.6402 -0.7281
vn -0.6571 0.2194 -0.7212
vn 0.1357 0.9747 -0.1778
vn 0.2694 0.9067 -0.3246
vn 0.1424 0.4955 -0.8569
usemtl Rock
s off
f 1//1 13//1 15//1
f 2//2 13//2 17//2
f 1//1 15//1 19//1
f 1//1 19//1 21//1
f 1//1 21//1 16//1
f 2//3 17//3 24//3
f 3//4 14//4 26//4
f 4//5 18//5 28//5
f 5//6 20//6 30//6
f 6//7 22//7 32//7
f 2//8 24//8 25//8
f 3//9 26//9 27//9
f 4//10 28//10 29//10
f 5//11 30//11 31//11
f 6//12 32//12 23//12
f 7//13 33//13 39//13
f 8//14 34//14 40//14
f 9//15 35//15 41//15
f 10//16 36//16 42//16
f 11//17 37//17 38//17
f 15//18 14//18 3//18
f 15//19 13//19 14//19
f 13//20 2//20 14//20
f 17//21 16//21 6//21
f 17//22 13//22 16//22
f 13//1 1//1 16//1
f 19//23 18//23 4//23
f 19//24 15//24 18//24
f 15//25 3//25 18//25
f 21//26 20//26 5//26
f 21//27 19//27 20//27
f 19//28 4//28 20//28
f 16//29 22//29 6//29
f 16//1 21//1 22//1
f 21//30 5//30 22//30
f 24//31 23//31 11//31
f 24//32 17//32 23//32
f 17//33 6//33 23//33
f 26//34 25//34 7//34
f 26//35 14//35 25//35
f 14//36 2//36 25//36
f 28//37 27//37 8//37
f 28//38 18//38 27//38
f 18//39 3//39 27//39
f 30//40 29//40 9//40
f 30//41 20//41 29//41
f 20//42 4//42 29//42
f 32//43 31//43 10//43
f 32//44 22//44 31//44
f 22//45 5//45 31//45
f 25//46 33//46 7//46
f 25//47 24//47 33//47
f 24//48 11//48 33//48
f 27//49 34//49 8//49
f 27//50 26//50 34//50
f 26//51 7//51 34//51
f 29//52 35//52 9//52
f 29//53 28//53 35//53
f 28//54 8//54 35//54
f 31//55 36//55 10//55
f 31//56 30//56 36//56
f 30//57 9//57 36//57
f 23//58 37//58 11//58
f 23//59 32//59 37//59
f 32//60 10//60 37//60
f 39//61 38//61 12//61
f 39//62 33//62 38//62
f 33//63 11//63 38//63
f 40//64 39//64 12//64
f 40//65 34//65 39//65
f 34//66 7//66 39//66
f 41//67 40//67 12//67
f 41//68 35//68 40//68
f 35//69 8//69 40//69
f 42//70 41//70 12//70
f 42//71 36//71 41//71
f 36//72 9//72 41//72
f 38//73 42//73 12//73
f 38//74 37//74 42//74
f 37//75 10//75 42//75
usemtl Snow
f 43//1 55//1 57//1
f 44//2 55//2 59//2
f 43//1 57//1 61//1
f 43//1 61//1 63//1
f 43//1 63//1 58//1
f 44//3 59//3 66//3
f 45//4 56//4 68//4
f 46//5 60//5 70//5
f 47//6 62//6 72//6
f 48//7 64//7 74//7
f 44//8 66//8 67//8
f 45//9 68//9 69//9
f 46//10 70//10 71//10
f 47//11 72//11 73//11
f 48//12 74//12 65//12
f 49//13 75//13 81//13
f 50//14 76//14 82//14
f 51//15 77//15 83//15
f 52//16 78//16 84//16
f 53//17 79//17 80//17
f 57//18 56//18 45//18
f 57//19 55//19 56//19
f 55//20 44//20 56//20
f 59//21 58//21 48//21
f 59//22 55//22 58//22
f 55//1 43//1 58//1
f 61//23 60//23 46//23
f 61//24 57//24 60//24
f 57//25 45//25 60//25
f 63//26 62//26 47//26
f 63//27 61//27 62//27
f 61//28 46//28 62//28
f 58//29 64//29 48//29
f 58//1 63//1 64//1
f 63//30 47//30 64//30
f 66//31 65//31 53//31
f 66//32 59//32 65//32
f 59//33 48//33 65//33
f 68//34 67//34 49//34
f 68//35 56//35 67//35
f 56//36 44//36 67//36
f 70//37 69//37 50//37
f 70//38 60//38 69//38
f 60//39 45//39 69//39
f 72//40 71//40 51//40
f 72//41 62//41 71//41
f 62//42 46//42 71//42
f 74//43 73//43 52//43
f 74//44 64//44 73//44
f 64//45 47//45 73//45
f 67//46 75//46 49//46
f 67//47 66//47 75//47
f 66//48 53//48 75//48
f 69//49 76//49 50//49
f 69//50 68//50 76//50
f 68//51 49//51 76//51
f 71//52 77//52 51//52
f 71//53 70//53 77//53
f 70//54 50//54 77//54
f 73//55 78//55 52//55
f 73//56 72//56 78//56
f 72//57 51//57 78//57
f 65//58 79//58 53//58
f 65//59 74//59 79//59
f 74//60 52//60 79//60
f 81//61 80//61 54//61
f 81//62 75//62 80//62
f 75//63 53//63 80//63
f 82//64 81//64 54//64
f 82//65 76//65 81//65
f 76//66 49//66 81//66
f 83//67 82//67 54//67
f 83//68 77//68 82//68
f 77//69 50//69 82//69
f 84//70 83//70 54//70
f 84//71 78//71 83//71
f 78//72 51//72 83//72
f 80//73 84//73 54//73
f 80//74 79//74 84//74
f 79//75 52//75 84//75
