# Blender v2.77 (sub 0) OBJ File: 'ForestTutorial.blend'
# www.blender.org
mtllib IceRock1.mtl
o IceRock1_Icosphere.005
v -2.047108 -0.017998 0.891989
v -1.732603 -0.017926 0.982091
v -2.096738 -0.017972 1.166429
v -2.388788 -0.020578 0.970763
v -2.210879 -0.018172 0.666602
v -1.802838 -0.017840 0.673321
v -1.935956 0.254710 1.045939
v -2.236201 0.207646 1.088826
v -2.276511 0.187586 0.831892
v -1.980489 0.262244 0.611077
v -1.680900 0.265835 0.805309
v -2.047963 0.412030 0.890828
v -1.862013 -0.017998 0.945268
v -1.891232 -0.017974 1.106514
v -2.076195 -0.017998 1.053414
v -1.903624 -0.017998 0.763494
v -1.718518 -0.017989 0.816769
v -2.278303 -0.018657 1.099497
v -2.250181 -0.017998 0.938476
v -2.345714 -0.018585 0.806950
v -2.143523 -0.017998 0.759295
v -2.000039 -0.017998 0.630798
v -1.683795 0.126925 0.710867
v -1.658365 0.110718 0.898572
v -1.791875 0.114928 1.042280
v -2.006873 0.115076 1.149322
v -2.213257 0.105772 1.179232
v -2.349472 0.080062 1.048647
v -2.378969 0.072188 0.896880
v -2.305421 0.094743 0.733241
v -2.114436 0.110145 0.597868
v -1.856194 0.128515 0.595345
v -1.769938 0.274281 0.945786
v -2.109243 0.269363 1.125053
v -2.277477 0.202315 0.963265
v -2.187925 0.258727 0.698520
v -1.776461 0.307322 0.669974
v -1.826142 0.384733 0.838946
v -1.980399 0.372220 0.984347
v -2.157373 0.344200 1.006626
v -2.185901 0.335648 0.852696
v -2.006148 0.378704 0.726214
v -2.046892 0.017220 0.891864
v -1.738914 0.017291 0.980095
v -2.095492 0.017246 1.160608
v -2.381481 0.014694 0.969002
v -2.207265 0.017050 0.671153
v -1.807692 0.017375 0.677733
v -1.938047 0.284269 1.042619
v -2.232061 0.238182 1.084615
v -2.271535 0.218538 0.833014
v -1.981656 0.291647 0.616782
v -1.688284 0.295163 0.806982
v -2.047730 0.438324 0.890726
v -1.865638 0.017220 0.944037
v -1.894251 0.017244 1.101936
v -2.075376 0.017220 1.049938
v -1.906386 0.017220 0.766035
v -1.725121 0.017230 0.818205
v -2.273289 0.016575 1.095065
v -2.245751 0.017220 0.937386
v -2.339301 0.016646 0.808589
v -2.141307 0.017220 0.761923
v -2.000800 0.017220 0.636093
v -1.691119 0.159136 0.714500
v -1.666217 0.143265 0.898310
v -1.796956 0.147388 1.039035
v -2.007493 0.147533 1.143855
v -2.209594 0.138422 1.173146
v -2.342981 0.113245 1.045270
v -2.371866 0.105535 0.896652
v -2.299845 0.127622 0.736410
v -2.112823 0.142704 0.603846
v -1.859941 0.160693 0.601376
v -1.775475 0.303434 0.944544
v -2.107738 0.298618 1.120090
v -2.272480 0.232962 0.961660
v -2.184787 0.288203 0.702410
v -1.781862 0.335790 0.674456
v -1.830512 0.411594 0.839921
v -1.981567 0.399340 0.982305
v -2.154869 0.371902 1.004122
v -2.182805 0.363527 0.853386
v -2.006782 0.405690 0.729529
vn 0.0000 -1.0000 0.0000
vn 0.0004 -1.0000 0.0004
vn 0.8841 -0.4612 0.0755
vn 0.2793 -0.0655 0.9580
vn -0.7412 -0.2051 0.6392
vn -0.7076 -0.1909 -0.6803
vn 0.1930 -0.4057 -0.8934
vn 0.7328 0.0187 0.6802
vn 0.1420 0.0313 0.9894
vn -0.9554 0.2391 0.1733
vn -0.5781 -0.0025 -0.8159
vn 0.5397 -0.2341 -0.8087
vn 0.3877 0.5387 0.7480
vn -0.4817 0.6390 0.5996
vn -0.8470 0.5275 -0.0654
vn -0.3098 0.6331 -0.7094
vn 0.5972 0.7811 -0.1823
vn 0.0001 -1.0000 0.0002
vn 0.0005 -1.0000 0.0002
vn 0.0004 -1.0000 -0.0013
vn 0.0001 -1.0000 -0.0000
vn 0.0184 -0.9998 -0.0009
vn 0.0024 -1.0000 -0.0037
vn 0.0035 -1.0000 0.0009
vn 0.0029 -1.0000 -0.0002
vn 0.0034 -1.0000 0.0020
vn 0.0168 -0.9998 -0.0078
vn 0.0010 -1.0000 -0.0007
vn 0.0010 -1.0000 0.0011
vn 0.9895 0.0666 -0.1283
vn 0.9291 -0.3358 -0.1549
vn 0.7464 -0.4999 -0.4393
vn 0.4087 0.3998 0.8204
vn 0.4436 0.0989 0.8908
vn 0.6152 -0.0809 0.7842
vn -0.6723 0.4009 0.6223
vn -0.6764 -0.1128 0.7278
vn -0.3174 -0.3884 0.8651
vn -0.7907 0.5442 -0.2804
vn -0.9135 0.0634 -0.4018
vn -0.9619 -0.1006 -0.2542
vn -0.0169 0.1013 -0.9947
vn 0.0078 -0.2424 -0.9702
vn -0.1550 -0.3734 -0.9146
vn 0.4309 0.4233 0.7970
vn 0.7045 0.2941 0.6459
vn 0.7852 0.3989 0.4737
vn -0.4605 0.5289 0.7129
vn 0.1289 0.2370 0.9629
vn 0.4084 0.4000 0.8205
vn -0.7667 0.6373 -0.0771
vn -0.8127 0.5683 0.1285
vn -0.7627 0.6063 0.2250
vn -0.3628 0.3929 -0.8450
vn -0.5737 0.2456 -0.7814
vn -0.8104 0.5261 -0.2577
vn 0.8187 0.3111 -0.4827
vn 0.5546 0.0976 -0.8264
vn 0.2032 0.2986 -0.9325
vn 0.1800 0.9452 0.2723
vn 0.4362 0.7304 0.5256
vn 0.6390 0.6775 0.3643
vn -0.0857 0.8929 0.4420
vn -0.0624 0.8321 0.5512
vn 0.3872 0.5386 0.7483
vn -0.4931 0.8689 0.0431
vn -0.7749 0.6226 0.1090
vn -0.7763 0.5868 0.2303
vn -0.4050 0.8707 -0.2791
vn -0.4650 0.7946 -0.3903
vn -0.8087 0.5306 -0.2541
vn 0.0789 0.9808 -0.1785
vn 0.1952 0.9121 -0.3605
vn 0.0472 0.7075 -0.7051
usemtl Rock
s off
f 1//1 13//1 15//1
f 2//2 13//2 17//2
f 1//1 15//1 19//1
f 1//1 19//1 21//1
f 1//1 21//1 16//1
f 2//3 17//3 24//3
f 3//4 14//4 26//4
f 4//5 18//5 28//5
f 5//6 20//6 30//6
f 6//7 22//7 32//7
f 2//8 24//8 25//8
f 3//9 26//9 27//9
f 4//10 28//10 29//10
f 5//11 30//11 31//11
f 6//12 32//12 23//12
f 7//13 33//13 39//13
f 8//14 34//14 40//14
f 9//15 35//15 41//15
f 10//16 36//16 42//16
f 11//17 37//17 38//17
f 15//18 14//18 3//18
f 15//18 13//18 14//18
f 13//19 2//19 14//19
f 17//20 16//20 6//20
f 17//21 13//21 16//21
f 13//1 1//1 16//1
f 19//22 18//22 4//22
f 19//23 15//23 18//23
f 15//24 3//24 18//24
f 21//25 20//25 5//25
f 21//26 19//26 20//26
f 19//27 4//27 20//27
f 16//28 22//28 6//28
f 16//1 21//1 22//1
f 21//29 5//29 22//29
f 24//30 23//30 11//30
f 24//31 17//31 23//31
f 17//32 6//32 23//32
f 26//33 25//33 7//33
f 26//34 14//34 25//34
f 14//35 2//35 25//35
f 28//36 27//36 8//36
f 28//37 18//37 27//37
f 18//38 3//38 27//38
f 30//39 29//39 9//39
f 30//40 20//40 29//40
f 20//41 4//41 29//41
f 32//42 31//42 10//42
f 32//43 22//43 31//43
f 22//44 5//44 31//44
f 25//45 33//45 7//45
f 25//46 24//46 33//46
f 24//47 11//47 33//47
f 27//48 34//48 8//48
f 27//49 26//49 34//49
f 26//50 7//50 34//50
f 29//51 35//51 9//51
f 29//52 28//52 35//52
f 28//53 8//53 35//53
f 31//54 36//54 10//54
f 31//55 30//55 36//55
f 30//56 9//56 36//56
f 23//57 37//57 11//57
f 23//58 32//58 37//58
f 32//59 10//59 37//59
f 39//60 38//60 12//60
f 39//61 33//61 38//61
f 33//62 11//62 38//62
f 40//63 39//63 12//63
f 40//64 34//64 39//64
f 34//65 7//65 39//65
f 41//66 40//66 12//66
f 41//67 35//67 40//67
f 35//68 8//68 40//68
f 42//69 41//69 12//69
f 42//70 36//70 41//70
f 36//71 9//71 41//71
f 38//72 42//72 12//72
f 38//73 37//73 42//73
f 37//74 10//74 42//74
usemtl Snow
f 43//1 55//1 57//1
f 44//2 55//2 59//2
f 43//1 57//1 61//1
f 43//1 61//1 63//1
f 43//1 63//1 58//1
f 44//3 59//3 66//3
f 45//4 56//4 68//4
f 46//5 60//5 70//5
f 47//6 62//6 72//6
f 48//7 64//7 74//7
f 44//8 66//8 67//8
f 45//9 68//9 69//9
f 46//10 70//10 71//10
f 47//11 72//11 73//11
f 48//12 74//12 65//12
f 49//13 75//13 81//13
f 50//14 76//14 82//14
f 51//15 77//15 83//15
f 52//16 78//16 84//16
f 53//17 79//17 80//17
f 57//18 56//18 45//18
f 57//18 55//18 56//18
f 55//19 44//19 56//19
f 59//20 58//20 48//20
f 59//21 55//21 58//21
f 55//1 43//1 58//1
f 61//22 60//22 46//22
f 61//23 57//23 60//23
f 57//24 45//24 60//24
f 63//25 62//25 47//25
f 63//26 61//26 62//26
f 61//27 46//27 62//27
f 58//28 64//28 48//28
f 58//1 63//1 64//1
f 63//29 47//29 64//29
f 66//30 65//30 53//30
f 66//31 59//31 65//31
f 59//32 48//32 65//32
f 68//33 67//33 49//33
f 68//34 56//34 67//34
f 56//35 44//35 67//35
f 70//36 69//36 50//36
f 70//37 60//37 69//37
f 60//38 45//38 69//38
f 72//39 71//39 51//39
f 72//40 62//40 71//40
f 62//41 46//41 71//41
f 74//42 73//42 52//42
f 74//43 64//43 73//43
f 64//44 47//44 73//44
f 67//45 75//45 49//45
f 67//46 66//46 75//46
f 66//47 53//47 75//47
f 69//48 76//48 50//48
f 69//49 68//49 76//49
f 68//50 49//50 76//50
f 71//51 77//51 51//51
f 71//52 70//52 77//52
f 70//53 50//53 77//53
f 73//54 78//54 52//54
f 73//55 72//55 78//55
f 72//56 51//56 78//56
f 65//57 79//57 53//57
f 65//58 74//58 79//58
f 74//59 52//59 79//59
f 81//60 80//60 54//60
f 81//61 75//61 80//61
f 75//62 53//62 80//62
f 82//63 81//63 54//63
f 82//64 76//64 81//64
f 76//65 49//65 81//65
f 83//66 82//66 54//66
f 83//67 77//67 82//67
f 77//68 50//68 82//68
f 84//69 83//69 54//69
f 84//70 78//70 83//70
f 78//71 51//71 83//71
f 80//72 84//72 54//72
f 80//73 79//73 84//73
f 79//74 52//74 84//74
