# Blender v2.77 (sub 0) OBJ File: 'ForestTutorial.blend'
# www.blender.org
mtllib IceTree.mtl
o Cylinder.007
v -2.670694 0.358486 -0.834734
v -2.670694 2.699605 -0.285486
v -2.286487 0.403333 -0.639023
v -2.649008 2.699605 -0.276503
v -2.090777 0.358486 -0.254817
v -2.640025 2.699605 -0.254817
v -2.286487 0.403333 0.129390
v -2.649008 2.699605 -0.233131
v -2.670694 0.358486 0.325100
v -2.670694 2.699605 -0.224148
v -3.054900 0.403333 0.129389
v -2.692380 2.699605 -0.233131
v -3.250611 0.358486 -0.254817
v -2.701363 2.699605 -0.254817
v -3.054900 0.403333 -0.639023
v -2.692380 2.699605 -0.276503
v -2.670694 0.741198 -0.746417
v -2.670694 1.123910 -0.658100
v -2.670694 1.506623 -0.569782
v -2.670694 1.889335 -0.481465
v -2.670694 2.272047 -0.393148
v -2.579047 2.316893 -0.346464
v -2.520535 1.934181 -0.404976
v -2.462023 1.551469 -0.463488
v -2.403511 1.168757 -0.522000
v -2.344999 0.786045 -0.580512
v -2.532363 2.272047 -0.254817
v -2.444046 1.889334 -0.254817
v -2.355728 1.506623 -0.254817
v -2.267411 1.123910 -0.254817
v -2.179094 0.741198 -0.254817
v -2.579047 2.316893 -0.163170
v -2.520535 1.934181 -0.104658
v -2.462023 1.551469 -0.046146
v -2.403511 1.168757 0.012366
v -2.344999 0.786045 0.070878
v -2.670694 2.272047 -0.116486
v -2.670694 1.889334 -0.028169
v -2.670694 1.506623 0.060149
v -2.670694 1.123910 0.148466
v -2.670694 0.741198 0.236783
v -2.762341 2.316893 -0.163170
v -2.820853 1.934181 -0.104658
v -2.879365 1.551469 -0.046146
v -2.937877 1.168757 0.012366
v -2.996388 0.786045 0.070878
v -2.809025 2.272047 -0.254817
v -2.897342 1.889334 -0.254817
v -2.985659 1.506623 -0.254817
v -3.073977 1.123910 -0.254817
v -3.162294 0.741198 -0.254817
v -2.762341 2.316893 -0.346464
v -2.820853 1.934181 -0.404976
v -2.879365 1.551469 -0.463488
v -2.937877 1.168757 -0.522000
v -2.996388 0.786045 -0.580511
v -2.670694 2.239629 -0.468024
v -2.529440 2.284475 -0.396071
v -2.457486 2.239629 -0.254817
v -2.529440 2.284475 -0.113563
v -2.670694 2.239629 -0.041609
v -2.811948 2.284475 -0.113563
v -2.883901 2.239629 -0.254817
v -2.811948 2.284475 -0.396071
v -2.670694 1.856917 -0.582970
v -2.453286 1.901763 -0.472225
v -2.342541 1.856917 -0.254817
v -2.453286 1.901763 -0.037409
v -2.670694 1.856917 0.073336
v -2.888102 1.901763 -0.037409
v -2.998847 1.856917 -0.254817
v -2.888102 1.901763 -0.472225
v -2.670694 1.474205 -0.673157
v -2.393535 1.519051 -0.531976
v -2.252353 1.474205 -0.254817
v -2.393535 1.519051 0.022342
v -2.670694 1.474205 0.163523
v -2.947853 1.519051 0.022342
v -3.089034 1.474205 -0.254817
v -2.947853 1.519051 -0.531976
v -2.670694 1.091493 -0.785113
v -2.319362 1.136339 -0.606149
v -2.140398 1.091493 -0.254817
v -2.319362 1.136339 0.096515
v -2.670694 1.091493 0.275479
v -3.022026 1.136339 0.096515
v -3.200990 1.091493 -0.254817
v -3.022026 1.136339 -0.606148
v -2.670694 0.708781 -0.869152
v -2.263685 0.753627 -0.661826
v -2.056359 0.708781 -0.254817
v -2.263685 0.753627 0.152192
v -2.670694 0.708781 0.359518
v -3.077703 0.753627 0.152192
v -3.285029 0.708781 -0.254817
v -3.077703 0.753627 -0.661826
v -2.223828 0.370915 -0.701683
v -1.996200 0.326069 -0.254817
v -2.223828 0.370915 0.192049
v -2.670694 0.326069 0.419677
v -3.117560 0.370915 0.192049
v -3.345188 0.326069 -0.254817
v -3.117560 0.370915 -0.701683
v -2.670694 0.326069 -0.929311
v -2.592442 0.202029 -0.333069
v -2.670694 0.202029 -0.365481
v -2.670694 -0.073123 -0.381723
v -2.670694 0.477180 -0.381723
v -2.580958 -0.073123 -0.344553
v -2.580958 0.477180 -0.344553
v -2.543788 -0.073123 -0.254817
v -2.543788 0.477180 -0.254817
v -2.580958 -0.073123 -0.165081
v -2.580958 0.477180 -0.165081
v -2.670694 -0.073123 -0.127911
v -2.670694 0.477180 -0.127911
v -2.760430 -0.073123 -0.165081
v -2.760430 0.477180 -0.165081
v -2.797600 -0.073123 -0.254817
v -2.797600 0.477180 -0.254817
v -2.760430 -0.073123 -0.344553
v -2.760430 0.477180 -0.344553
v -2.560030 0.202029 -0.254817
v -2.592442 0.202029 -0.176565
v -2.670694 0.202029 -0.144152
v -2.748945 0.202029 -0.176565
v -2.781358 0.202029 -0.254817
v -2.748945 0.202029 -0.333069
v -2.670694 0.424825 -0.828156
v -2.670694 2.739390 -0.285138
v -2.290845 0.469163 -0.634666
v -2.649254 2.739390 -0.276257
v -2.097354 0.424825 -0.254817
v -2.640373 2.739390 -0.254817
v -2.290845 0.469163 0.125032
v -2.649254 2.739390 -0.233377
v -2.670694 0.424825 0.318523
v -2.670694 2.739390 -0.224496
v -3.050543 0.469163 0.125032
v -2.692134 2.739390 -0.233377
v -3.244033 0.424825 -0.254817
v -2.701015 2.739390 -0.254817
v -3.050543 0.469163 -0.634666
v -2.692134 2.739390 -0.276257
v -2.670694 0.803196 -0.740841
v -2.670694 1.181568 -0.653525
v -2.670694 1.559939 -0.566210
v -2.670694 1.938310 -0.478895
v -2.670694 2.316682 -0.391579
v -2.580086 2.361019 -0.345425
v -2.522238 1.982648 -0.403273
v -2.464390 1.604277 -0.461121
v -2.406542 1.225905 -0.518969
v -2.348693 0.847534 -0.576818
v -2.533932 2.316682 -0.254817
v -2.446616 1.938310 -0.254817
v -2.359301 1.559939 -0.254817
v -2.271985 1.181568 -0.254817
v -2.184670 0.803196 -0.254817
v -2.580086 2.361019 -0.164209
v -2.522238 1.982648 -0.106361
v -2.464390 1.604277 -0.048513
v -2.406542 1.225905 0.009335
v -2.348693 0.847534 0.067184
v -2.670694 2.316682 -0.118055
v -2.670694 1.938310 -0.030739
v -2.670694 1.559939 0.056576
v -2.670694 1.181568 0.143892
v -2.670694 0.803196 0.231207
v -2.761302 2.361019 -0.164209
v -2.819150 1.982648 -0.106361
v -2.876998 1.604277 -0.048513
v -2.934846 1.225905 0.009335
v -2.992694 0.847534 0.067184
v -2.807456 2.316682 -0.254817
v -2.894772 1.938310 -0.254817
v -2.982087 1.559939 -0.254817
v -3.069402 1.181568 -0.254817
v -3.156718 0.803196 -0.254817
v -2.761302 2.361019 -0.345425
v -2.819150 1.982648 -0.403273
v -2.876998 1.604277 -0.461121
v -2.934846 1.225905 -0.518969
v -2.992694 0.847534 -0.576817
v -2.670694 2.284632 -0.465606
v -2.531042 2.328969 -0.394469
v -2.459905 2.284632 -0.254817
v -2.531042 2.328969 -0.115165
v -2.670694 2.284632 -0.044028
v -2.810346 2.328969 -0.115165
v -2.881483 2.284632 -0.254817
v -2.810346 2.328969 -0.394469
v -2.670694 1.906260 -0.579248
v -2.455752 1.950598 -0.469759
v -2.346263 1.906260 -0.254817
v -2.455752 1.950598 -0.039875
v -2.670694 1.906260 0.069614
v -2.885636 1.950598 -0.039875
v -2.995125 1.906260 -0.254817
v -2.885636 1.950598 -0.469759
v -2.670694 1.527889 -0.668412
v -2.396679 1.572227 -0.528832
v -2.257098 1.527889 -0.254817
v -2.396679 1.572227 0.019198
v -2.670694 1.527889 0.158779
v -2.944709 1.572227 0.019198
v -3.084290 1.527889 -0.254817
v -2.944709 1.572227 -0.528832
v -2.670694 1.149518 -0.779098
v -2.323347 1.193856 -0.602164
v -2.146412 1.149518 -0.254817
v -2.323347 1.193856 0.092530
v -2.670694 1.149518 0.269465
v -3.018041 1.193856 0.092530
v -3.194975 1.149518 -0.254817
v -3.018041 1.193856 -0.602164
v -2.670694 0.771147 -0.862184
v -2.268301 0.815484 -0.657210
v -2.063327 0.771147 -0.254817
v -2.268301 0.815484 0.147576
v -2.670694 0.771147 0.352550
v -3.073087 0.815484 0.147576
v -3.278061 0.771147 -0.254817
v -3.073087 0.815484 -0.657210
v -2.228896 0.437113 -0.696614
v -2.003850 0.392775 -0.254817
v -2.228896 0.437113 0.186980
v -2.670694 0.392775 0.412027
v -3.112491 0.437113 0.186980
v -3.337538 0.392775 -0.254817
v -3.112491 0.437113 -0.696614
v -2.670694 0.392775 -0.921661
vn 0.3385 0.3481 -0.8742
vn 0.8742 0.3481 -0.3385
vn 0.8742 0.3481 0.3385
vn 0.3385 0.3481 0.8742
vn -0.3385 0.3481 0.8742
vn -0.8742 0.3481 0.3385
vn 0.0000 1.0000 0.0000
vn -0.3385 0.3481 -0.8742
vn -0.8742 0.3481 -0.3385
vn -0.0000 -1.0000 0.0000
vn 0.3882 0.3663 -0.8456
vn 0.3689 0.4138 -0.8323
vn 0.3573 0.4209 -0.8338
vn 0.3546 0.3819 -0.8535
vn 0.3305 0.3787 -0.8645
vn 0.8456 0.3663 -0.3882
vn 0.8323 0.4138 -0.3689
vn 0.8338 0.4209 -0.3573
vn 0.8535 0.3819 -0.3546
vn 0.8645 0.3787 -0.3305
vn 0.8456 0.3663 0.3882
vn 0.8323 0.4138 0.3689
vn 0.8338 0.4209 0.3573
vn 0.8535 0.3819 0.3546
vn 0.8645 0.3787 0.3305
vn 0.3882 0.3663 0.8456
vn 0.3689 0.4138 0.8323
vn 0.3573 0.4209 0.8338
vn 0.3546 0.3819 0.8535
vn 0.3305 0.3787 0.8645
vn -0.3882 0.3663 0.8456
vn -0.3689 0.4138 0.8323
vn -0.3573 0.4209 0.8338
vn -0.3546 0.3819 0.8535
vn -0.3305 0.3787 0.8645
vn -0.8456 0.3663 0.3882
vn -0.8323 0.4138 0.3689
vn -0.8338 0.4209 0.3573
vn -0.8535 0.3819 0.3546
vn -0.8645 0.3787 0.3305
vn -0.3882 0.3663 -0.8456
vn -0.3689 0.4138 -0.8323
vn -0.3573 0.4209 -0.8338
vn -0.3546 0.3819 -0.8535
vn -0.3305 0.3787 -0.8645
vn -0.8456 0.3663 -0.3882
vn -0.8323 0.4138 -0.3689
vn -0.8338 0.4209 -0.3573
vn -0.8535 0.3819 -0.3546
vn -0.8645 0.3787 -0.3305
vn 0.0865 -0.8690 0.4871
vn -0.4871 -0.8690 -0.0865
vn -0.4871 -0.8690 0.0865
vn 0.0865 -0.8690 -0.4871
vn -0.0865 -0.8690 -0.4871
vn 0.4871 -0.8690 0.0865
vn -0.0865 -0.8690 0.4871
vn 0.4871 -0.8690 -0.0865
vn 0.0373 -0.9278 0.3713
vn -0.3713 -0.9278 -0.0373
vn -0.3713 -0.9278 0.0373
vn 0.0373 -0.9278 -0.3713
vn -0.0373 -0.9278 -0.3713
vn 0.3713 -0.9278 0.0373
vn -0.0373 -0.9278 0.3713
vn 0.3713 -0.9278 -0.0373
vn -0.0059 -0.9364 0.3509
vn -0.3509 -0.9364 0.0059
vn -0.3509 -0.9364 -0.0059
vn -0.0059 -0.9364 -0.3509
vn 0.0059 -0.9364 -0.3509
vn 0.3509 -0.9364 -0.0059
vn 0.0059 -0.9364 0.3509
vn 0.3509 -0.9364 0.0059
vn -0.0091 -0.9569 0.2902
vn -0.2902 -0.9569 0.0091
vn -0.2902 -0.9569 -0.0091
vn -0.0091 -0.9569 -0.2902
vn 0.0091 -0.9569 -0.2902
vn 0.2902 -0.9569 -0.0091
vn 0.0091 -0.9569 0.2902
vn 0.2902 -0.9569 0.0091
vn -0.0313 -0.9561 0.2913
vn -0.2913 -0.9561 0.0313
vn -0.2913 -0.9561 -0.0313
vn -0.0313 -0.9561 -0.2913
vn 0.0313 -0.9561 -0.2913
vn 0.2913 -0.9561 -0.0313
vn 0.0313 -0.9561 0.2913
vn 0.2913 -0.9561 0.0313
vn -0.0791 -0.9323 0.3529
vn -0.3529 -0.9323 0.0791
vn -0.3529 -0.9323 -0.0791
vn -0.0791 -0.9323 -0.3529
vn 0.0791 -0.9323 -0.3529
vn 0.3529 -0.9323 -0.0791
vn 0.0791 -0.9323 0.3529
vn 0.3529 -0.9323 0.0791
vn -0.9225 0.0545 0.3821
vn 0.3821 -0.0545 -0.9225
vn -0.3821 0.0545 -0.9225
vn 0.9225 -0.0545 -0.3821
vn 0.3821 0.0545 0.9225
vn 0.9225 -0.0545 0.3821
vn 0.9225 0.0545 0.3821
vn 0.3821 -0.0545 0.9225
vn 0.9225 0.0545 -0.3821
vn -0.3821 -0.0545 0.9225
vn -0.9225 0.0545 -0.3821
vn 0.3821 0.0545 -0.9225
vn -0.9225 -0.0545 0.3821
vn -0.3821 -0.0545 -0.9225
vn -0.9225 -0.0545 -0.3821
vn -0.3821 0.0545 0.9225
usemtl Leaves
s off
f 57//1 2//1 4//1 58//1
f 58//2 4//2 6//2 59//2
f 59//3 6//3 8//3 60//3
f 60//4 8//4 10//4 61//4
f 61//5 10//5 12//5 62//5
f 62//6 12//6 14//6 63//6
f 4//7 2//7 16//7 14//7 12//7 10//7 8//7 6//7
f 64//8 16//8 2//8 57//8
f 63//9 14//9 16//9 64//9
f 1//10 3//10 5//10 7//10 9//10 11//10 13//10 15//10
f 104//11 17//11 26//11 97//11
f 89//12 18//12 25//12 90//12
f 81//13 19//13 24//13 82//13
f 73//14 20//14 23//14 74//14
f 65//15 21//15 22//15 66//15
f 97//16 26//16 31//16 98//16
f 90//17 25//17 30//17 91//17
f 82//18 24//18 29//18 83//18
f 74//19 23//19 28//19 75//19
f 66//20 22//20 27//20 67//20
f 98//21 31//21 36//21 99//21
f 91//22 30//22 35//22 92//22
f 83//23 29//23 34//23 84//23
f 75//24 28//24 33//24 76//24
f 67//25 27//25 32//25 68//25
f 99//26 36//26 41//26 100//26
f 92//27 35//27 40//27 93//27
f 84//28 34//28 39//28 85//28
f 76//29 33//29 38//29 77//29
f 68//30 32//30 37//30 69//30
f 100//31 41//31 46//31 101//31
f 93//32 40//32 45//32 94//32
f 85//33 39//33 44//33 86//33
f 77//34 38//34 43//34 78//34
f 69//35 37//35 42//35 70//35
f 101//36 46//36 51//36 102//36
f 94//37 45//37 50//37 95//37
f 86//38 44//38 49//38 87//38
f 78//39 43//39 48//39 79//39
f 70//40 42//40 47//40 71//40
f 103//41 56//41 17//41 104//41
f 96//42 55//42 18//42 89//42
f 88//43 54//43 19//43 81//43
f 80//44 53//44 20//44 73//44
f 72//45 52//45 21//45 65//45
f 102//46 51//46 56//46 103//46
f 95//47 50//47 55//47 96//47
f 87//48 49//48 54//48 88//48
f 79//49 48//49 53//49 80//49
f 71//50 47//50 52//50 72//50
f 21//51 57//51 58//51 22//51
f 22//52 58//52 59//52 27//52
f 27//53 59//53 60//53 32//53
f 32//54 60//54 61//54 37//54
f 37//55 61//55 62//55 42//55
f 42//56 62//56 63//56 47//56
f 52//57 64//57 57//57 21//57
f 47//58 63//58 64//58 52//58
f 20//59 65//59 66//59 23//59
f 23//60 66//60 67//60 28//60
f 28//61 67//61 68//61 33//61
f 33//62 68//62 69//62 38//62
f 38//63 69//63 70//63 43//63
f 43//64 70//64 71//64 48//64
f 53//65 72//65 65//65 20//65
f 48//66 71//66 72//66 53//66
f 19//67 73//67 74//67 24//67
f 24//68 74//68 75//68 29//68
f 29//69 75//69 76//69 34//69
f 34//70 76//70 77//70 39//70
f 39//71 77//71 78//71 44//71
f 44//72 78//72 79//72 49//72
f 54//73 80//73 73//73 19//73
f 49//74 79//74 80//74 54//74
f 18//75 81//75 82//75 25//75
f 25//76 82//76 83//76 30//76
f 30//77 83//77 84//77 35//77
f 35//78 84//78 85//78 40//78
f 40//79 85//79 86//79 45//79
f 45//80 86//80 87//80 50//80
f 55//81 88//81 81//81 18//81
f 50//82 87//82 88//82 55//82
f 17//83 89//83 90//83 26//83
f 26//84 90//84 91//84 31//84
f 31//85 91//85 92//85 36//85
f 36//86 92//86 93//86 41//86
f 41//87 93//87 94//87 46//87
f 46//88 94//88 95//88 51//88
f 56//89 96//89 89//89 17//89
f 51//90 95//90 96//90 56//90
f 1//91 104//91 97//91 3//91
f 3//92 97//92 98//92 5//92
f 5//93 98//93 99//93 7//93
f 7//94 99//94 100//94 9//94
f 9//95 100//95 101//95 11//95
f 11//96 101//96 102//96 13//96
f 15//97 103//97 104//97 1//97
f 13//98 102//98 103//98 15//98
usemtl Bark
f 117//99 126//99 127//99 119//99
f 106//100 108//100 110//100 105//100
f 121//101 128//101 106//101 107//101
f 105//102 110//102 112//102 123//102
f 113//103 124//103 125//103 115//103
f 123//104 112//104 114//104 124//104
f 111//105 123//105 124//105 113//105
f 124//106 114//106 116//106 125//106
f 109//107 105//107 123//107 111//107
f 125//108 116//108 118//108 126//108
f 119//109 127//109 128//109 121//109
f 107//110 106//110 105//110 109//110
f 126//111 118//111 120//111 127//111
f 110//7 108//7 122//7 120//7 118//7 116//7 114//7 112//7
f 128//112 122//112 108//112 106//112
f 127//113 120//113 122//113 128//113
f 115//114 125//114 126//114 117//114
f 107//10 109//10 111//10 113//10 115//10 117//10 119//10 121//10
usemtl Snow
f 185//1 130//1 132//1 186//1
f 186//2 132//2 134//2 187//2
f 187//3 134//3 136//3 188//3
f 188//4 136//4 138//4 189//4
f 189//5 138//5 140//5 190//5
f 190//6 140//6 142//6 191//6
f 132//7 130//7 144//7 142//7 140//7 138//7 136//7 134//7
f 192//8 144//8 130//8 185//8
f 191//9 142//9 144//9 192//9
f 129//10 131//10 133//10 135//10 137//10 139//10 141//10 143//10
f 232//11 145//11 154//11 225//11
f 217//12 146//12 153//12 218//12
f 209//13 147//13 152//13 210//13
f 201//14 148//14 151//14 202//14
f 193//15 149//15 150//15 194//15
f 225//16 154//16 159//16 226//16
f 218//17 153//17 158//17 219//17
f 210//18 152//18 157//18 211//18
f 202//19 151//19 156//19 203//19
f 194//20 150//20 155//20 195//20
f 226//21 159//21 164//21 227//21
f 219//22 158//22 163//22 220//22
f 211//23 157//23 162//23 212//23
f 203//24 156//24 161//24 204//24
f 195//25 155//25 160//25 196//25
f 227//26 164//26 169//26 228//26
f 220//27 163//27 168//27 221//27
f 212//28 162//28 167//28 213//28
f 204//29 161//29 166//29 205//29
f 196//30 160//30 165//30 197//30
f 228//31 169//31 174//31 229//31
f 221//32 168//32 173//32 222//32
f 213//33 167//33 172//33 214//33
f 205//34 166//34 171//34 206//34
f 197//35 165//35 170//35 198//35
f 229//36 174//36 179//36 230//36
f 222//37 173//37 178//37 223//37
f 214//38 172//38 177//38 215//38
f 206//39 171//39 176//39 207//39
f 198//40 170//40 175//40 199//40
f 231//41 184//41 145//41 232//41
f 224//42 183//42 146//42 217//42
f 216//43 182//43 147//43 209//43
f 208//44 181//44 148//44 201//44
f 200//45 180//45 149//45 193//45
f 230//46 179//46 184//46 231//46
f 223//47 178//47 183//47 224//47
f 215//48 177//48 182//48 216//48
f 207//49 176//49 181//49 208//49
f 199//50 175//50 180//50 200//50
f 149//51 185//51 186//51 150//51
f 150//52 186//52 187//52 155//52
f 155//53 187//53 188//53 160//53
f 160//54 188//54 189//54 165//54
f 165//55 189//55 190//55 170//55
f 170//56 190//56 191//56 175//56
f 180//57 192//57 185//57 149//57
f 175//58 191//58 192//58 180//58
f 148//59 193//59 194//59 151//59
f 151//60 194//60 195//60 156//60
f 156//61 195//61 196//61 161//61
f 161//62 196//62 197//62 166//62
f 166//63 197//63 198//63 171//63
f 171//64 198//64 199//64 176//64
f 181//65 200//65 193//65 148//65
f 176//66 199//66 200//66 181//66
f 147//67 201//67 202//67 152//67
f 152//68 202//68 203//68 157//68
f 157//69 203//69 204//69 162//69
f 162//70 204//70 205//70 167//70
f 167//71 205//71 206//71 172//71
f 172//72 206//72 207//72 177//72
f 182//73 208//73 201//73 147//73
f 177//74 207//74 208//74 182//74
f 146//75 209//75 210//75 153//75
f 153//76 210//76 211//76 158//76
f 158//77 211//77 212//77 163//77
f 163//78 212//78 213//78 168//78
f 168//79 213//79 214//79 173//79
f 173//80 214//80 215//80 178//80
f 183//81 216//81 209//81 146//81
f 178//82 215//82 216//82 183//82
f 145//83 217//83 218//83 154//83
f 154//84 218//84 219//84 159//84
f 159//85 219//85 220//85 164//85
f 164//86 220//86 221//86 169//86
f 169//87 221//87 222//87 174//87
f 174//88 222//88 223//88 179//88
f 184//89 224//89 217//89 145//89
f 179//90 223//90 224//90 184//90
f 129//91 232//91 225//91 131//91
f 131//92 225//92 226//92 133//92
f 133//93 226//93 227//93 135//93
f 135//94 227//94 228//94 137//94
f 137//95 228//95 229//95 139//95
f 139//96 229//96 230//96 141//96
f 143//97 231//97 232//97 129//97
f 141//98 230//98 231//98 143//98
