# Blender v2.77 (sub 0) OBJ File: 'ForestTutorial.blend'
# www.blender.org
mtllib Rock.mtl
o Rock_Icosphere.008
v -0.243223 -0.017998 1.605570
v -0.040734 -0.017993 1.862973
v -0.444693 -0.017208 1.798947
v -0.566549 -0.020578 1.469884
v -0.244451 -0.018205 1.327120
v 0.082859 -0.018540 1.572664
v -0.298963 0.198574 1.785529
v -0.603815 0.122862 1.615936
v -0.429720 0.151572 1.393908
v 0.026387 0.128828 1.546816
v 0.019792 0.145239 1.778198
v -0.289838 0.307527 1.547289
v -0.124128 -0.017998 1.756948
v -0.242006 -0.017979 1.870829
v -0.361138 -0.017998 1.719587
v -0.051702 -0.017998 1.585112
v 0.066336 -0.018063 1.736048
v -0.552107 -0.018642 1.638905
v -0.435194 -0.017998 1.524658
v -0.435717 -0.019129 1.364567
v -0.243950 -0.017998 1.441548
v -0.052428 -0.017998 1.421088
v 0.109195 0.094942 1.681897
v 0.005823 0.062813 1.824185
v -0.115144 0.076877 1.895862
v -0.427641 0.140527 1.809799
v -0.605067 0.089405 1.716681
v -0.585774 0.067535 1.553689
v -0.516025 0.072309 1.414844
v -0.361327 0.062594 1.354000
v -0.123971 0.092220 1.352815
v 0.120426 0.080101 1.560883
v -0.103215 0.155083 1.826745
v -0.573288 0.193777 1.696392
v -0.525366 0.158889 1.477656
v -0.277268 0.141541 1.371668
v 0.105543 0.189869 1.672768
v -0.053905 0.269195 1.735991
v -0.301129 0.305250 1.690215
v -0.525247 0.221691 1.552832
v -0.413489 0.231396 1.409884
v -0.101945 0.265280 1.530299
vn 0.0000 -1.0000 0.0000
vn -0.0003 -1.0000 0.0003
vn 0.7579 -0.1297 0.6394
vn -0.3342 -0.0287 0.9421
vn -0.9537 -0.2887 0.0848
vn -0.1921 0.0482 -0.9802
vn 0.7006 -0.3416 -0.6265
vn 0.5161 0.1103 0.8494
vn -0.4622 -0.0110 0.8867
vn -0.8747 0.2199 -0.4319
vn -0.0380 0.2656 -0.9633
vn 0.9318 -0.3396 0.1281
vn -0.0090 0.6662 0.7458
vn -0.8212 0.5451 -0.1688
vn -0.6218 0.2733 -0.7340
vn 0.4786 0.3528 -0.8041
vn 0.5281 0.5378 0.6572
vn -0.0053 -1.0000 0.0043
vn -0.0000 -1.0000 0.0002
vn -0.0001 -1.0000 0.0001
vn -0.0038 -1.0000 0.0025
vn -0.0004 -1.0000 -0.0001
vn 0.0154 -0.9998 0.0101
vn 0.0040 -1.0000 -0.0015
vn -0.0006 -1.0000 0.0094
vn 0.0052 -1.0000 0.0018
vn 0.0031 -1.0000 0.0071
vn 0.0167 -0.9998 0.0070
vn -0.0040 -1.0000 0.0000
vn 0.0002 -1.0000 0.0018
vn 0.7686 0.2074 0.6052
vn 0.8117 -0.0283 0.5833
vn 0.9451 -0.3122 0.0965
vn -0.1063 0.5749 0.8113
vn -0.2497 0.0792 0.9651
vn 0.0372 -0.3012 0.9528
vn -0.9716 -0.2207 -0.0854
vn -0.9112 -0.4085 -0.0531
vn -0.6426 -0.6295 0.4369
vn -0.3546 0.1420 -0.9242
vn -0.3479 0.1982 -0.9163
vn -0.6217 -0.1205 -0.7740
vn 0.4571 0.7397 -0.4939
vn 0.6458 -0.0526 -0.7617
vn 0.4245 -0.2614 -0.8669
vn -0.0103 0.6631 0.7485
vn 0.4743 0.5413 0.6943
vn 0.3634 0.4062 0.8384
vn -0.9478 0.3060 0.0899
vn -0.5104 0.3112 0.8016
vn -0.2176 0.7457 0.6297
vn -0.5722 0.4403 -0.6919
vn -0.8749 0.2190 -0.4320
vn -0.8728 0.2107 -0.4403
vn 0.2453 0.9001 -0.3600
vn -0.0367 0.2553 -0.9662
vn -0.1148 0.3317 -0.9364
vn 0.7532 0.0916 0.6514
vn 0.9951 0.0466 0.0866
vn 0.4371 0.6704 -0.5996
vn 0.1394 0.9899 0.0268
vn -0.0502 0.6349 0.7710
vn 0.3546 0.4833 0.8004
vn -0.3428 0.9393 -0.0121
vn -0.3774 0.9245 0.0535
vn -0.2469 0.6429 0.7251
vn -0.3396 0.9183 -0.2032
vn -0.6630 0.5750 -0.4793
vn -0.8287 0.4302 -0.3581
vn 0.1313 0.8123 -0.5682
vn 0.2154 0.6402 -0.7374
vn -0.1267 0.2194 -0.9674
vn 0.2130 0.9747 -0.0683
vn 0.4066 0.9067 -0.1122
vn 0.6068 0.4955 -0.6215
usemtl Rock
s off
f 1//1 13//1 15//1
f 2//2 13//2 17//2
f 1//1 15//1 19//1
f 1//1 19//1 21//1
f 1//1 21//1 16//1
f 2//3 17//3 24//3
f 3//4 14//4 26//4
f 4//5 18//5 28//5
f 5//6 20//6 30//6
f 6//7 22//7 32//7
f 2//8 24//8 25//8
f 3//9 26//9 27//9
f 4//10 28//10 29//10
f 5//11 30//11 31//11
f 6//12 32//12 23//12
f 7//13 33//13 39//13
f 8//14 34//14 40//14
f 9//15 35//15 41//15
f 10//16 36//16 42//16
f 11//17 37//17 38//17
f 15//18 14//18 3//18
f 15//19 13//19 14//19
f 13//20 2//20 14//20
f 17//21 16//21 6//21
f 17//22 13//22 16//22
f 13//1 1//1 16//1
f 19//23 18//23 4//23
f 19//24 15//24 18//24
f 15//25 3//25 18//25
f 21//26 20//26 5//26
f 21//27 19//27 20//27
f 19//28 4//28 20//28
f 16//29 22//29 6//29
f 16//1 21//1 22//1
f 21//30 5//30 22//30
f 24//31 23//31 11//31
f 24//32 17//32 23//32
f 17//33 6//33 23//33
f 26//34 25//34 7//34
f 26//35 14//35 25//35
f 14//36 2//36 25//36
f 28//37 27//37 8//37
f 28//38 18//38 27//38
f 18//39 3//39 27//39
f 30//40 29//40 9//40
f 30//41 20//41 29//41
f 20//42 4//42 29//42
f 32//43 31//43 10//43
f 32//44 22//44 31//44
f 22//45 5//45 31//45
f 25//46 33//46 7//46
f 25//47 24//47 33//47
f 24//48 11//48 33//48
f 27//49 34//49 8//49
f 27//50 26//50 34//50
f 26//51 7//51 34//51
f 29//52 35//52 9//52
f 29//53 28//53 35//53
f 28//54 8//54 35//54
f 31//55 36//55 10//55
f 31//56 30//56 36//56
f 30//57 9//57 36//57
f 23//58 37//58 11//58
f 23//59 32//59 37//59
f 32//60 10//60 37//60
f 39//61 38//61 12//61
f 39//62 33//62 38//62
f 33//63 11//63 38//63
f 40//64 39//64 12//64
f 40//65 34//65 39//65
f 34//66 7//66 39//66
f 41//67 40//67 12//67
f 41//68 35//68 40//68
f 35//69 8//69 40//69
f 42//70 41//70 12//70
f 42//71 36//71 41//71
f 36//72 9//72 41//72
f 38//73 42//73 12//73
f 38//74 37//74 42//74
f 37//75 10//75 42//75
