# Blender v2.77 (sub 0) OBJ File: 'ForestTutorial.blend'
# www.blender.org
mtllib Rock2.mtl
o Rock2_Icosphere.007
v -1.139798 -0.017998 1.605570
v -0.928884 -0.017993 1.856116
v -1.334744 -0.017208 1.805523
v -1.467447 -0.020578 1.480682
v -1.150276 -0.018172 1.327162
v -0.815215 -0.017846 1.560012
v -1.189539 0.311047 1.787279
v -1.497164 0.287459 1.628917
v -1.335282 0.194878 1.379985
v -0.880128 0.265190 1.474036
v -0.871203 0.257713 1.769380
v -1.187922 0.424983 1.549020
v -1.015749 -0.017998 1.752915
v -1.129785 -0.017979 1.870642
v -1.253867 -0.017998 1.723435
v -0.949062 -0.017998 1.578771
v -0.826082 -0.018063 1.725710
v -1.447407 -0.018642 1.649131
v -1.334348 -0.017998 1.531069
v -1.340431 -0.018585 1.368623
v -1.145965 -0.017998 1.441662
v -0.955227 -0.017998 1.414862
v -0.785043 0.123331 1.670166
v -0.883639 0.105156 1.815805
v -1.002162 0.113964 1.891454
v -1.317081 0.174416 1.815902
v -1.496846 0.157799 1.728970
v -1.483785 0.085004 1.565115
v -1.418776 0.072309 1.423996
v -1.269528 0.095429 1.325343
v -1.031678 0.110158 1.324087
v -0.782503 0.130576 1.510796
v -0.992533 0.267556 1.821980
v -1.462543 0.392618 1.708870
v -1.423548 0.226160 1.488034
v -1.187104 0.265959 1.318955
v -0.790344 0.306449 1.650182
v -0.946259 0.381669 1.729640
v -1.194796 0.418585 1.692116
v -1.416999 0.429001 1.564672
v -1.317248 0.358595 1.399600
v -1.003437 0.384890 1.506573
vn 0.0000 -1.0000 0.0000
vn -0.0003 -1.0000 0.0003
vn 0.7824 -0.0856 0.6168
vn -0.3028 -0.0237 0.9528
vn -0.9629 -0.2429 0.1173
vn -0.2067 -0.2322 -0.9504
vn 0.6710 -0.3624 -0.6469
vn 0.5405 0.0757 0.8380
vn -0.4347 -0.0087 0.9005
vn -0.8823 0.2031 -0.4247
vn -0.0040 -0.0202 -0.9998
vn 0.9770 -0.2134 0.0059
vn 0.0145 0.6630 0.7484
vn -0.8886 0.4245 -0.1736
vn -0.7413 0.1598 -0.6519
vn 0.3691 0.5780 -0.7278
vn 0.5742 0.5439 0.6119
vn -0.0052 -1.0000 0.0045
vn -0.0000 -1.0000 0.0002
vn -0.0001 -1.0000 0.0001
vn 0.0010 -1.0000 -0.0012
vn -0.0004 -1.0000 -0.0001
vn 0.0157 -0.9998 0.0096
vn 0.0040 -1.0000 -0.0017
vn -0.0003 -1.0000 0.0094
vn 0.0025 -1.0000 0.0014
vn 0.0017 -1.0000 0.0035
vn 0.0183 -0.9998 0.0029
vn 0.0011 -1.0000 -0.0000
vn 0.0002 -1.0000 0.0015
vn 0.8173 0.1058 0.5665
vn 0.8291 -0.0212 0.5587
vn 0.9648 -0.2553 0.0629
vn -0.1570 0.3407 0.9270
vn -0.2218 0.0610 0.9732
vn 0.0703 -0.2214 0.9726
vn -0.9972 -0.0475 -0.0584
vn -0.9550 -0.2918 0.0535
vn -0.7259 -0.4419 0.5270
vn -0.5585 0.0841 -0.8252
vn -0.5543 0.0290 -0.8318
vn -0.6565 -0.1113 -0.7461
vn 0.5766 0.2020 -0.7916
vn 0.5984 -0.1937 -0.7774
vn 0.3809 -0.3723 -0.8464
vn -0.0683 0.4147 0.9074
vn 0.5261 0.3229 0.7867
vn 0.4026 0.2363 0.8844
vn -0.9649 0.1588 0.2089
vn -0.4415 0.1404 0.8862
vn -0.1623 0.3452 0.9244
vn -0.7130 0.2505 -0.6549
vn -0.8929 0.1491 -0.4248
vn -0.8637 0.0987 -0.4943
vn 0.4163 0.3882 -0.8222
vn -0.0030 -0.0360 -0.9993
vn -0.4485 0.1840 -0.8746
vn 0.8075 0.0870 0.5834
vn 0.9994 0.0308 0.0173
vn 0.7644 0.4210 -0.4883
vn 0.1392 0.9890 0.0509
vn -0.0224 0.6344 0.7727
vn 0.3809 0.4833 0.7882
vn 0.0206 0.9987 0.0456
vn -0.0805 0.9722 0.2199
vn -0.0173 0.6621 0.7492
vn -0.0111 0.9173 -0.3980
vn -0.7810 0.2426 -0.5754
vn -0.8198 0.2254 -0.5264
vn 0.0846 0.8814 -0.4648
vn 0.1512 0.7613 -0.6306
vn -0.4387 0.1544 -0.8853
vn 0.2038 0.9783 -0.0381
vn 0.3960 0.9140 -0.0883
vn 0.5589 0.6976 -0.4483
usemtl Rock
s off
f 1//1 13//1 15//1
f 2//2 13//2 17//2
f 1//1 15//1 19//1
f 1//1 19//1 21//1
f 1//1 21//1 16//1
f 2//3 17//3 24//3
f 3//4 14//4 26//4
f 4//5 18//5 28//5
f 5//6 20//6 30//6
f 6//7 22//7 32//7
f 2//8 24//8 25//8
f 3//9 26//9 27//9
f 4//10 28//10 29//10
f 5//11 30//11 31//11
f 6//12 32//12 23//12
f 7//13 33//13 39//13
f 8//14 34//14 40//14
f 9//15 35//15 41//15
f 10//16 36//16 42//16
f 11//17 37//17 38//17
f 15//18 14//18 3//18
f 15//19 13//19 14//19
f 13//20 2//20 14//20
f 17//21 16//21 6//21
f 17//22 13//22 16//22
f 13//1 1//1 16//1
f 19//23 18//23 4//23
f 19//24 15//24 18//24
f 15//25 3//25 18//25
f 21//26 20//26 5//26
f 21//27 19//27 20//27
f 19//28 4//28 20//28
f 16//29 22//29 6//29
f 16//1 21//1 22//1
f 21//30 5//30 22//30
f 24//31 23//31 11//31
f 24//32 17//32 23//32
f 17//33 6//33 23//33
f 26//34 25//34 7//34
f 26//35 14//35 25//35
f 14//36 2//36 25//36
f 28//37 27//37 8//37
f 28//38 18//38 27//38
f 18//39 3//39 27//39
f 30//40 29//40 9//40
f 30//41 20//41 29//41
f 20//42 4//42 29//42
f 32//43 31//43 10//43
f 32//44 22//44 31//44
f 22//45 5//45 31//45
f 25//46 33//46 7//46
f 25//47 24//47 33//47
f 24//48 11//48 33//48
f 27//49 34//49 8//49
f 27//50 26//50 34//50
f 26//51 7//51 34//51
f 29//52 35//52 9//52
f 29//53 28//53 35//53
f 28//54 8//54 35//54
f 31//55 36//55 10//55
f 31//56 30//56 36//56
f 30//57 9//57 36//57
f 23//58 37//58 11//58
f 23//59 32//59 37//59
f 32//60 10//60 37//60
f 39//61 38//61 12//61
f 39//62 33//62 38//62
f 33//63 11//63 38//63
f 40//64 39//64 12//64
f 40//65 34//65 39//65
f 34//66 7//66 39//66
f 41//67 40//67 12//67
f 41//68 35//68 40//68
f 35//69 8//69 40//69
f 42//70 41//70 12//70
f 42//71 36//71 41//71
f 36//72 9//72 41//72
f 38//73 42//73 12//73
f 38//74 37//74 42//74
f 37//75 10//75 42//75
